<svg xmlns="http://www.w3.org/2000/svg" viewBox="0 0 800 500">
  <defs>
    <linearGradient id="bg4" x1="0%" y1="0%" x2="100%" y2="100%">
      <stop offset="0%" style="stop-color:#1e3a8a"/>
      <stop offset="100%" style="stop-color:#3b82f6"/>
    </linearGradient>
  </defs>
  <rect width="800" height="500" fill="url(#bg4)"/>
  <!-- Pixel-inspired EV -->
  <g fill="white" opacity="0.9">
    <path d="M120,330 Q180,260 280,250 L520,250 Q620,260 680,330 L710,355 L90,355 Z"/>
    <circle cx="200" cy="355" r="42" fill="#1e40af"/>
    <circle cx="200" cy="355" r="24" fill="#4a5568"/>
    <circle cx="600" cy="355" r="42" fill="#1e40af"/>
    <circle cx="600" cy="355" r="24" fill="#4a5568"/>
    <rect x="250" y="270" width="300" height="60" rx="5" fill="rgba(96,165,250,0.3)"/>
  </g>
  <!-- Pixel elements -->
  <g fill="#22d3ee" opacity="0.6">
    <rect x="170" y="180" width="20" height="20"/>
    <rect x="200" y="180" width="20" height="20"/>
    <rect x="230" y="180" width="20" height="20"/>
    <rect x="550" y="180" width="20" height="20"/>
    <rect x="580" y="180" width="20" height="20"/>
    <rect x="610" y="180" width="20" height="20"/>
  </g>
  <text x="400" y="440" font-family="Arial Black, sans-serif" font-size="28" fill="white" text-anchor="middle" font-weight="bold">IONIQ 5</text>
  <text x="400" y="475" font-family="Arial, sans-serif" font-size="16" fill="rgba(255,255,255,0.7)" text-anchor="middle">Iconic EV • 800V Ultra-Fast Charging</text>
</svg>