<svg xmlns="http://www.w3.org/2000/svg" viewBox="0 0 800 500">
  <defs>
    <linearGradient id="bg7" x1="0%" y1="0%" x2="100%" y2="100%">
      <stop offset="0%" style="stop-color:#dc2626"/>
      <stop offset="100%" style="stop-color:#f97316"/>
    </linearGradient>
  </defs>
  <rect width="800" height="500" fill="url(#bg7)"/>
  <!-- Sporty SUV silhouette -->
  <g fill="white" opacity="0.95">
    <path d="M130,330 Q180,270 280,255 L520,255 Q620,270 670,330 L700,355 L100,355 Z"/>
    <circle cx="210" cy="355" r="40" fill="#b91c1c"/>
    <circle cx="210" cy="355" r="22" fill="#4a5568"/>
    <circle cx="590" cy="355" r="40" fill="#b91c1c"/>
    <circle cx="590" cy="355" r="22" fill="#4a5568"/>
    <rect x="260" y="270" width="280" height="55" rx="5" fill="rgba(251,191,36,0.3)"/>
    <!-- N Line accent -->
    <rect x="340" y="200" width="120" height="8" rx="4" fill="#fbbf24"/>
  </g>
  <!-- Sporty stripes -->
  <g stroke="#fbbf24" stroke-width="3" opacity="0.5">
    <line x1="200" y1="290" x2="300" y2="290"/>
    <line x1="200" y1="300" x2="280" y2="300"/>
    <line x1="500" y1="290" x2="600" y2="290"/>
    <line x1="520" y1="300" x2="600" y2="300"/>
  </g>
  <text x="400" y="440" font-family="Arial Black, sans-serif" font-size="28" fill="white" text-anchor="middle" font-weight="bold">NEW CRETA</text>
  <text x="400" y="475" font-family="Arial, sans-serif" font-size="16" fill="rgba(255,255,255,0.8)" text-anchor="middle">Facelift 2026 • Compact SUV • N Line Available</text>
</svg>